<?xml version="1.0" encoding="UTF-8" standalone="no"?><!DOCTYPE svg PUBLIC "-//W3C//DTD SVG 1.1//EN" "http://www.w3.org/Graphics/SVG/1.1/DTD/svg11.dtd"><svg width="100%" height="100%" viewBox="0 0 3125 2084" version="1.1" xmlns="http://www.w3.org/2000/svg" xmlns:xlink="http://www.w3.org/1999/xlink" xml:space="preserve" xmlns:serif="http://www.serif.com/" style="fill-rule:evenodd;clip-rule:evenodd;stroke-linecap:round;stroke-linejoin:round;stroke-miterlimit:10;"><g id="Background_Simple"><g><path d="M579.167,1754.06c9.212,16.125 18.412,33.5 24.812,45.833l2158.66,-0c18.312,-37.521 87.77,-202.333 62.362,-500c-29.167,-341.667 -400,-770.834 -762.5,-900c-362.5,-129.167 -495.833,108.333 -704.167,245.833c-208.333,137.5 -491.666,-4.167 -775,170.833c-283.333,175 -300,512.501 -208.333,687.501c91.667,175 187.5,220.833 204.167,250Z" style="fill:#e5e5e5;fill-rule:nonzero;"/></g></g><g id="Window"><g><g><rect x="172.838" y="1228.08" width="2704.78" height="14.117" style="fill:#263238;"/><path d="M2020.83,1000.73l0,-546.958" style="fill:none;fill-rule:nonzero;stroke:#263238;stroke-width:4.17px;"/><path d="M2020.83,1236.41l0,-209.108" style="fill:none;fill-rule:nonzero;stroke:#263238;stroke-width:4.17px;"/><path d="M1320.83,607.921l0,-149.288" style="fill:none;fill-rule:nonzero;stroke:#263238;stroke-width:4.17px;"/><path d="M1320.83,1236.41l0,-601.912" style="fill:none;fill-rule:nonzero;stroke:#263238;stroke-width:4.17px;"/><path d="M2722.24,572.479l-0,-118.712" style="fill:none;fill-rule:nonzero;stroke:#263238;stroke-width:4.17px;"/><path d="M2722.24,1236.41l-0,-637.349" style="fill:none;fill-rule:nonzero;stroke:#263238;stroke-width:4.17px;"/><path d="M619.425,1236.41l0,-777.779" style="fill:none;fill-rule:nonzero;stroke:#263238;stroke-width:4.17px;"/><path d="M2682.25,852.213l128.446,-0" style="fill:none;fill-rule:nonzero;stroke:#263238;stroke-width:4.17px;"/><path d="M951.55,852.213l1710.02,-0" style="fill:none;fill-rule:nonzero;stroke:#263238;stroke-width:4.17px;"/><path d="M558.333,852.213l372.542,-0" style="fill:none;fill-rule:nonzero;stroke:#263238;stroke-width:4.17px;"/></g><g><path d="M1761.07,710.733l-9.596,5.913" style="fill:none;fill-rule:nonzero;stroke:#263238;stroke-width:2.08px;"/><path d="M1922.82,611.05l-148.859,91.738" style="fill:none;fill-rule:nonzero;stroke:#263238;stroke-width:2.08px;"/><path d="M1942.46,617.246l-119.263,73.5" style="fill:none;fill-rule:nonzero;stroke:#263238;stroke-width:2.08px;"/><path d="M1994.55,585.146l-36.017,22.2" style="fill:none;fill-rule:nonzero;stroke:#263238;stroke-width:2.08px;"/></g><g><path d="M811.246,710.733l-9.596,5.913" style="fill:none;fill-rule:nonzero;stroke:#263238;stroke-width:2.08px;"/><path d="M972.996,611.05l-148.858,91.738" style="fill:none;fill-rule:nonzero;stroke:#263238;stroke-width:2.08px;"/><path d="M992.638,617.246l-119.263,73.5" style="fill:none;fill-rule:nonzero;stroke:#263238;stroke-width:2.08px;"/><path d="M1044.72,585.146l-36.017,22.2" style="fill:none;fill-rule:nonzero;stroke:#263238;stroke-width:2.08px;"/></g><g><path d="M2328.04,710.733l-9.596,5.913" style="fill:none;fill-rule:nonzero;stroke:#263238;stroke-width:2.08px;"/><path d="M2489.8,611.05l-148.858,91.738" style="fill:none;fill-rule:nonzero;stroke:#263238;stroke-width:2.08px;"/><path d="M2509.43,617.246l-119.258,73.5" style="fill:none;fill-rule:nonzero;stroke:#263238;stroke-width:2.08px;"/><path d="M2561.52,585.146l-36.021,22.2" style="fill:none;fill-rule:nonzero;stroke:#263238;stroke-width:2.08px;"/></g><g><path d="M1147.48,1040.83l-280.912,173.121" style="fill:none;fill-rule:nonzero;stroke:#263238;stroke-width:2.08px;"/><path d="M1184.55,1052.53l-225.058,138.696" style="fill:none;fill-rule:nonzero;stroke:#263238;stroke-width:2.08px;"/><path d="M1282.84,991.958l-67.97,41.888" style="fill:none;fill-rule:nonzero;stroke:#263238;stroke-width:2.08px;"/></g><g><path d="M1857.42,1214.18l-18.109,11.159" style="fill:none;fill-rule:nonzero;stroke:#263238;stroke-width:2.08px;"/><path d="M2162.66,1026.07l-280.913,173.117" style="fill:none;fill-rule:nonzero;stroke:#263238;stroke-width:2.08px;"/><path d="M2199.72,1037.77l-225.058,138.7" style="fill:none;fill-rule:nonzero;stroke:#263238;stroke-width:2.08px;"/><path d="M2298.02,977.192l-67.971,41.887" style="fill:none;fill-rule:nonzero;stroke:#263238;stroke-width:2.08px;"/></g></g></g><g id="Lamp"><g><path d="M1009.73,435.579l0,-52.35l-66.666,0l-0,52.354c-35.334,14.275 -60.451,50.55 -60.451,93.071c0,0.775 0.038,1.542 0.055,2.317l187.454,-0c0.017,-0.771 0.054,-1.538 0.054,-2.317c0.004,-42.521 -25.113,-78.8 -60.446,-93.075Z" style="fill:#263238;fill-rule:nonzero;stroke:#263238;stroke-width:4.17px;"/><path d="M976.396,383.229l-0,-125" style="fill:none;fill-rule:nonzero;stroke:#263238;stroke-width:4.17px;"/></g><g><path d="M2326.4,435.579l-0,-52.35l-66.667,0l0,52.354c-35.333,14.275 -60.45,50.55 -60.45,93.071c0,0.775 0.038,1.542 0.054,2.317l187.454,-0c0.017,-0.771 0.055,-1.538 0.055,-2.317c0.004,-42.521 -25.113,-78.8 -60.446,-93.075Z" style="fill:#263238;fill-rule:nonzero;stroke:#263238;stroke-width:4.17px;"/><path d="M2293.06,383.229l-0,-125" style="fill:none;fill-rule:nonzero;stroke:#263238;stroke-width:4.17px;"/></g></g><g id="Floor"><path d="M108.333,1799.9l2825,-0" style="fill:none;fill-rule:nonzero;stroke:#263238;stroke-width:4.17px;"/></g><g id="Plant"><g><g><path d="M2771.55,1194.63l47.742,457.45" style="fill:none;fill-rule:nonzero;stroke:#263238;stroke-width:8.33px;stroke-linecap:butt;stroke-linejoin:miter;"/><g><g><path d="M2811.6,1564.54l-21.642,-22.862" style="fill:none;fill-rule:nonzero;stroke:#263238;stroke-width:8.33px;stroke-linecap:butt;stroke-linejoin:miter;"/><path d="M2796.53,1548.53c0,0 0.621,-10.112 -8.612,-18.358c-5.554,-4.963 -34.792,-17.263 -37.567,-6.963c-3.016,11.2 26.909,33.192 46.179,25.321Z" style="fill:#41b7f9;fill-rule:nonzero;stroke:#263238;stroke-width:4.17px;stroke-linecap:butt;stroke-linejoin:miter;"/><path d="M2796.53,1548.53l-27.833,-17.342" style="fill:none;fill-rule:nonzero;stroke:#263238;stroke-width:2.08px;stroke-linecap:butt;stroke-linejoin:miter;"/></g><g><path d="M2817.03,1616.56l-21.641,-22.863" style="fill:none;fill-rule:nonzero;stroke:#263238;stroke-width:8.33px;stroke-linecap:butt;stroke-linejoin:miter;"/><path d="M2801.96,1600.55c-0.001,0 0.62,-10.112 -8.613,-18.358c-5.554,-4.963 -34.792,-17.263 -37.567,-6.963c-3.016,11.2 26.909,33.196 46.179,25.321Z" style="fill:#41b7f9;fill-rule:nonzero;stroke:#263238;stroke-width:4.17px;stroke-linecap:butt;stroke-linejoin:miter;"/><path d="M2801.96,1600.55l-27.834,-17.342" style="fill:none;fill-rule:nonzero;stroke:#263238;stroke-width:2.08px;stroke-linecap:butt;stroke-linejoin:miter;"/></g><g><path d="M2798.35,1437.58l-21.642,-22.858" style="fill:none;fill-rule:nonzero;stroke:#263238;stroke-width:8.33px;stroke-linecap:butt;stroke-linejoin:miter;"/><path d="M2783.28,1421.58c0,0 0.621,-10.112 -8.612,-18.358c-5.554,-4.963 -34.792,-17.263 -37.567,-6.963c-3.016,11.196 26.909,33.192 46.179,25.321Z" style="fill:#41b7f9;fill-rule:nonzero;stroke:#263238;stroke-width:4.17px;stroke-linecap:butt;stroke-linejoin:miter;"/><path d="M2783.28,1421.58l-27.833,-17.346" style="fill:none;fill-rule:nonzero;stroke:#263238;stroke-width:2.08px;stroke-linecap:butt;stroke-linejoin:miter;"/></g><g><path d="M2803.78,1489.61l-21.645,-22.858" style="fill:none;fill-rule:nonzero;stroke:#263238;stroke-width:8.33px;stroke-linecap:butt;stroke-linejoin:miter;"/><path d="M2788.71,1473.6c-0,0 0.62,-10.113 -8.613,-18.358c-5.554,-4.963 -34.792,-17.263 -37.567,-6.963c-3.016,11.2 26.909,33.192 46.18,25.321Z" style="fill:#41b7f9;fill-rule:nonzero;stroke:#263238;stroke-width:4.17px;stroke-linecap:butt;stroke-linejoin:miter;"/><path d="M2788.71,1473.6l-27.83,-17.346" style="fill:none;fill-rule:nonzero;stroke:#263238;stroke-width:2.08px;stroke-linecap:butt;stroke-linejoin:miter;"/></g><g><path d="M2789.53,1353.07l-21.645,-22.859" style="fill:none;fill-rule:nonzero;stroke:#263238;stroke-width:8.33px;stroke-linecap:butt;stroke-linejoin:miter;"/><path d="M2774.46,1337.06c-0.001,-0.001 0.62,-10.113 -8.613,-18.359c-5.554,-4.962 -34.792,-17.262 -37.567,-6.962c-3.016,11.2 26.909,33.191 46.179,25.32Z" style="fill:#41b7f9;fill-rule:nonzero;stroke:#263238;stroke-width:4.17px;stroke-linecap:butt;stroke-linejoin:miter;"/><path d="M2774.46,1337.06l-27.834,-17.342" style="fill:none;fill-rule:nonzero;stroke:#263238;stroke-width:2.08px;stroke-linecap:butt;stroke-linejoin:miter;"/></g><g><path d="M2780.68,1268.19l-21.646,-22.859" style="fill:none;fill-rule:nonzero;stroke:#263238;stroke-width:8.33px;stroke-linecap:butt;stroke-linejoin:miter;"/><path d="M2765.61,1252.18c0,0 0.621,-10.112 -8.612,-18.358c-5.554,-4.962 -34.792,-17.262 -37.567,-6.967c-3.021,11.2 26.904,33.196 46.179,25.325Z" style="fill:#41b7f9;fill-rule:nonzero;stroke:#263238;stroke-width:4.17px;stroke-linecap:butt;stroke-linejoin:miter;"/><path d="M2765.61,1252.18l-27.833,-17.345" style="fill:none;fill-rule:nonzero;stroke:#263238;stroke-width:2.08px;stroke-linecap:butt;stroke-linejoin:miter;"/></g><g><path d="M2807.96,1533.75l16.458,-26.837" style="fill:none;fill-rule:nonzero;stroke:#263238;stroke-width:8.33px;stroke-linecap:butt;stroke-linejoin:miter;"/><path d="M2819.4,1514.98c0,0 -2.692,-9.766 4.638,-19.741c4.412,-6 30.479,-24.071 35.32,-14.571c5.263,10.333 -19.475,38.033 -39.958,34.312Z" style="fill:#41b7f9;fill-rule:nonzero;stroke:#263238;stroke-width:4.17px;stroke-linecap:butt;stroke-linejoin:miter;"/><path d="M2819.4,1514.98l25.063,-23.954" style="fill:none;fill-rule:nonzero;stroke:#263238;stroke-width:2.08px;stroke-linecap:butt;stroke-linejoin:miter;"/></g><g><path d="M2793.68,1396.85l16.458,-26.838" style="fill:none;fill-rule:nonzero;stroke:#263238;stroke-width:8.33px;stroke-linecap:butt;stroke-linejoin:miter;"/><path d="M2805.11,1378.07c-0.001,-0 -2.692,-9.767 4.637,-19.742c4.412,-6 30.479,-24.071 35.317,-14.571c5.266,10.338 -19.471,38.038 -39.955,34.313Z" style="fill:#41b7f9;fill-rule:nonzero;stroke:#263238;stroke-width:4.17px;stroke-linecap:butt;stroke-linejoin:miter;"/><path d="M2805.11,1378.07l25.062,-23.954" style="fill:none;fill-rule:nonzero;stroke:#263238;stroke-width:2.08px;stroke-linecap:butt;stroke-linejoin:miter;"/></g><g><path d="M2787.4,1336.68l16.458,-26.833" style="fill:none;fill-rule:nonzero;stroke:#263238;stroke-width:8.33px;stroke-linecap:butt;stroke-linejoin:miter;"/><path d="M2798.83,1317.91c0,0 -2.695,-9.766 4.638,-19.741c4.412,-6 30.479,-24.071 35.321,-14.571c5.262,10.333 -19.475,38.033 -39.959,34.312Z" style="fill:#41b7f9;fill-rule:nonzero;stroke:#263238;stroke-width:4.17px;stroke-linecap:butt;stroke-linejoin:miter;"/><path d="M2798.83,1317.91l25.063,-23.954" style="fill:none;fill-rule:nonzero;stroke:#263238;stroke-width:2.08px;stroke-linecap:butt;stroke-linejoin:miter;"/></g><g><path d="M2778.19,1248.48l16.458,-26.837" style="fill:none;fill-rule:nonzero;stroke:#263238;stroke-width:8.33px;stroke-linecap:butt;stroke-linejoin:miter;"/><path d="M2789.63,1229.7c0,0 -2.691,-9.766 4.638,-19.741c4.412,-6 30.479,-24.071 35.321,-14.571c5.262,10.337 -19.475,38.037 -39.959,34.312Z" style="fill:#41b7f9;fill-rule:nonzero;stroke:#263238;stroke-width:4.17px;stroke-linecap:butt;stroke-linejoin:miter;"/><path d="M2789.63,1229.7l25.063,-23.954" style="fill:none;fill-rule:nonzero;stroke:#263238;stroke-width:2.08px;stroke-linecap:butt;stroke-linejoin:miter;"/><path d="M2771.15,1192.09c0,-0 -2.691,-9.767 4.638,-19.742c4.412,-6 30.479,-24.071 35.321,-14.571c5.262,10.337 -19.475,38.037 -39.959,34.313Z" style="fill:#41b7f9;fill-rule:nonzero;stroke:#263238;stroke-width:4.17px;stroke-linecap:butt;stroke-linejoin:miter;"/><path d="M2771.15,1192.09l25.063,-23.955" style="fill:none;fill-rule:nonzero;stroke:#263238;stroke-width:2.08px;stroke-linecap:butt;stroke-linejoin:miter;"/><path d="M2772.6,1193.12c0,-0 -9.996,1.654 -19.146,-6.684c-5.504,-5.016 -20.741,-32.833 -10.787,-36.649c10.833,-4.15 35.783,23.354 29.933,43.333Z" style="fill:#41b7f9;fill-rule:nonzero;stroke:#263238;stroke-width:4.17px;stroke-linecap:butt;stroke-linejoin:miter;"/><path d="M2772.6,1193.12l-21.191,-27.434" style="fill:none;fill-rule:nonzero;stroke:#263238;stroke-width:2.08px;stroke-linecap:butt;stroke-linejoin:miter;"/></g></g></g><g><path d="M2897.47,1257.63l-47.471,457.479" style="fill:none;fill-rule:nonzero;stroke:#263238;stroke-width:8.33px;stroke-linecap:butt;stroke-linejoin:miter;"/><g><g><path d="M2860.5,1627.85l-16.471,-26.825" style="fill:none;fill-rule:nonzero;stroke:#263238;stroke-width:8.33px;stroke-linecap:butt;stroke-linejoin:miter;"/><path d="M2849.05,1609.08c0,0 2.688,-9.766 -4.65,-19.737c-4.417,-6 -30.492,-24.054 -35.329,-14.55c-5.258,10.337 19.496,38.025 39.979,34.287Z" style="fill:#41b7f9;fill-rule:nonzero;stroke:#263238;stroke-width:4.17px;stroke-linecap:butt;stroke-linejoin:miter;"/><path d="M2849.05,1609.08l-23.667,-22.704" style="fill:none;fill-rule:nonzero;stroke:#263238;stroke-width:2.08px;stroke-linecap:butt;stroke-linejoin:miter;"/></g><g><path d="M2873.67,1500.9l-16.475,-26.825" style="fill:none;fill-rule:nonzero;stroke:#263238;stroke-width:8.33px;stroke-linecap:butt;stroke-linejoin:miter;"/><path d="M2862.22,1482.12c-0,0 2.687,-9.767 -4.65,-19.738c-4.417,-6 -30.492,-24.054 -35.329,-14.55c-5.254,10.338 19.5,38.026 39.979,34.288Z" style="fill:#41b7f9;fill-rule:nonzero;stroke:#263238;stroke-width:4.17px;stroke-linecap:butt;stroke-linejoin:miter;"/><path d="M2862.22,1482.12l-23.667,-22.704" style="fill:none;fill-rule:nonzero;stroke:#263238;stroke-width:2.08px;stroke-linecap:butt;stroke-linejoin:miter;"/></g><g><path d="M2868.27,1552.92l-16.471,-26.829" style="fill:none;fill-rule:nonzero;stroke:#263238;stroke-width:8.33px;stroke-linecap:butt;stroke-linejoin:miter;"/><path d="M2856.83,1534.15c0,0 2.688,-9.766 -4.65,-19.737c-4.417,-6 -30.492,-24.054 -35.329,-14.55c-5.258,10.337 19.496,38.021 39.979,34.287Z" style="fill:#41b7f9;fill-rule:nonzero;stroke:#263238;stroke-width:4.17px;stroke-linecap:butt;stroke-linejoin:miter;"/><path d="M2856.83,1534.15l-23.667,-22.704" style="fill:none;fill-rule:nonzero;stroke:#263238;stroke-width:2.08px;stroke-linecap:butt;stroke-linejoin:miter;"/></g><g><path d="M2882.44,1416.38l-16.475,-26.825" style="fill:none;fill-rule:nonzero;stroke:#263238;stroke-width:8.33px;stroke-linecap:butt;stroke-linejoin:miter;"/><path d="M2870.99,1397.61c-0,0 2.687,-9.766 -4.65,-19.737c-4.417,-6 -30.492,-24.054 -35.329,-14.55c-5.255,10.337 19.5,38.025 39.979,34.287Z" style="fill:#41b7f9;fill-rule:nonzero;stroke:#263238;stroke-width:4.17px;stroke-linecap:butt;stroke-linejoin:miter;"/><path d="M2870.99,1397.61l-23.667,-22.704" style="fill:none;fill-rule:nonzero;stroke:#263238;stroke-width:2.08px;stroke-linecap:butt;stroke-linejoin:miter;"/></g><g><path d="M2891.25,1331.49l-16.475,-26.825" style="fill:none;fill-rule:nonzero;stroke:#263238;stroke-width:8.33px;stroke-linecap:butt;stroke-linejoin:miter;"/><path d="M2879.8,1312.73c0,-0 2.688,-9.767 -4.65,-19.738c-4.417,-6 -30.492,-24.054 -35.329,-14.55c-5.258,10.338 19.5,38.021 39.979,34.288Z" style="fill:#41b7f9;fill-rule:nonzero;stroke:#263238;stroke-width:4.17px;stroke-linecap:butt;stroke-linejoin:miter;"/><path d="M2879.8,1312.73l-23.667,-22.704" style="fill:none;fill-rule:nonzero;stroke:#263238;stroke-width:2.08px;stroke-linecap:butt;stroke-linejoin:miter;"/></g><g><path d="M2863.28,1596.98l21.629,-22.875" style="fill:none;fill-rule:nonzero;stroke:#263238;stroke-width:8.33px;stroke-linecap:butt;stroke-linejoin:miter;"/><path d="M2878.33,1580.96c0,-0 -0.625,-10.113 8.605,-18.363c5.554,-4.962 34.779,-17.283 37.562,-6.987c3.021,11.2 -26.892,33.212 -46.167,25.35Z" style="fill:#41b7f9;fill-rule:nonzero;stroke:#263238;stroke-width:4.17px;stroke-linecap:butt;stroke-linejoin:miter;"/><path d="M2878.33,1580.96l29.459,-18.28" style="fill:none;fill-rule:nonzero;stroke:#263238;stroke-width:2.08px;stroke-linecap:butt;stroke-linejoin:miter;"/></g><g><path d="M2877.48,1460.07l21.629,-22.875" style="fill:none;fill-rule:nonzero;stroke:#263238;stroke-width:8.33px;stroke-linecap:butt;stroke-linejoin:miter;"/><path d="M2892.54,1444.05c-0.001,0 -0.626,-10.112 8.604,-18.362c5.554,-4.967 34.783,-17.28 37.562,-6.988c3.025,11.2 -26.887,33.213 -46.166,25.35Z" style="fill:#41b7f9;fill-rule:nonzero;stroke:#263238;stroke-width:4.17px;stroke-linecap:butt;stroke-linejoin:miter;"/><path d="M2892.54,1444.05l29.458,-18.283" style="fill:none;fill-rule:nonzero;stroke:#263238;stroke-width:2.08px;stroke-linecap:butt;stroke-linejoin:miter;"/></g><g><path d="M2883.72,1399.9l21.629,-22.871" style="fill:none;fill-rule:nonzero;stroke:#263238;stroke-width:8.33px;stroke-linecap:butt;stroke-linejoin:miter;"/><path d="M2898.78,1383.88c0,0 -0.625,-10.112 8.605,-18.362c5.554,-4.963 34.779,-17.283 37.562,-6.988c3.021,11.196 -26.892,33.209 -46.167,25.35Z" style="fill:#41b7f9;fill-rule:nonzero;stroke:#263238;stroke-width:4.17px;stroke-linecap:butt;stroke-linejoin:miter;"/><path d="M2898.78,1383.88l29.459,-18.283" style="fill:none;fill-rule:nonzero;stroke:#263238;stroke-width:2.08px;stroke-linecap:butt;stroke-linejoin:miter;"/></g><g><path d="M2892.88,1311.69l21.629,-22.871" style="fill:none;fill-rule:nonzero;stroke:#263238;stroke-width:8.33px;stroke-linecap:butt;stroke-linejoin:miter;"/><path d="M2907.93,1295.67c0,0 -0.625,-10.112 8.605,-18.362c5.554,-4.963 34.783,-17.28 37.562,-6.988c3.025,11.196 -26.887,33.213 -46.167,25.35Z" style="fill:#41b7f9;fill-rule:nonzero;stroke:#263238;stroke-width:4.17px;stroke-linecap:butt;stroke-linejoin:miter;"/><path d="M2907.93,1295.67l29.459,-18.283" style="fill:none;fill-rule:nonzero;stroke:#263238;stroke-width:2.08px;stroke-linecap:butt;stroke-linejoin:miter;"/><path d="M2897.6,1255.06c0,0 -0.625,-10.112 8.604,-18.362c5.55,-4.963 34.784,-17.279 37.563,-6.988c3.025,11.2 -26.888,33.213 -46.167,25.35Z" style="fill:#41b7f9;fill-rule:nonzero;stroke:#263238;stroke-width:4.17px;stroke-linecap:butt;stroke-linejoin:miter;"/><path d="M2897.6,1255.06l29.458,-18.279" style="fill:none;fill-rule:nonzero;stroke:#263238;stroke-width:2.08px;stroke-linecap:butt;stroke-linejoin:miter;"/><path d="M2898.81,1256.37c0,-0 -10.12,-0.438 -17.358,-10.484c-4.354,-6.041 -13.537,-36.404 -3.008,-38.087c11.454,-1.833 30.208,30.221 20.366,48.571Z" style="fill:#41b7f9;fill-rule:nonzero;stroke:#263238;stroke-width:4.17px;stroke-linecap:butt;stroke-linejoin:miter;"/><path d="M2898.81,1256.37l-15.091,-31.213" style="fill:none;fill-rule:nonzero;stroke:#263238;stroke-width:2.08px;stroke-linecap:butt;stroke-linejoin:miter;"/></g></g></g><path d="M2843.07,1071.34l-0,578.512" style="fill:none;fill-rule:nonzero;stroke:#263238;stroke-width:8.33px;stroke-linecap:butt;stroke-linejoin:miter;"/><g><g><path d="M2843.53,1562.87l-19.154,-24.979" style="fill:none;fill-rule:nonzero;stroke:#263238;stroke-width:8.33px;stroke-linecap:butt;stroke-linejoin:miter;"/><path d="M2830.21,1545.38c0,0 1.667,-9.991 -6.662,-19.154c-5.009,-5.512 -32.813,-20.779 -36.642,-10.825c-4.162,10.825 23.317,35.804 43.304,29.979Z" style="fill:#41b7f9;fill-rule:nonzero;stroke:#263238;stroke-width:4.17px;stroke-linecap:butt;stroke-linejoin:miter;"/><path d="M2830.21,1545.38l-25.883,-20.141" style="fill:none;fill-rule:nonzero;stroke:#263238;stroke-width:2.08px;stroke-linecap:butt;stroke-linejoin:miter;"/></g><g><path d="M2843.53,1454.15l-19.154,-24.979" style="fill:none;fill-rule:nonzero;stroke:#263238;stroke-width:8.33px;stroke-linecap:butt;stroke-linejoin:miter;"/><path d="M2830.21,1436.66c0,0 1.667,-9.991 -6.662,-19.154c-5.009,-5.512 -32.813,-20.779 -36.642,-10.825c-4.162,10.83 23.317,35.809 43.304,29.979Z" style="fill:#41b7f9;fill-rule:nonzero;stroke:#263238;stroke-width:4.17px;stroke-linecap:butt;stroke-linejoin:miter;"/><path d="M2830.21,1436.66l-25.883,-20.137" style="fill:none;fill-rule:nonzero;stroke:#263238;stroke-width:2.08px;stroke-linecap:butt;stroke-linejoin:miter;"/></g><g><path d="M2843.53,1326.51l-19.154,-24.979" style="fill:none;fill-rule:nonzero;stroke:#263238;stroke-width:8.33px;stroke-linecap:butt;stroke-linejoin:miter;"/><path d="M2830.21,1309.02c0,-0 1.667,-9.992 -6.662,-19.154c-5.009,-5.513 -32.813,-20.779 -36.642,-10.825c-4.162,10.829 23.317,35.812 43.304,29.979Z" style="fill:#41b7f9;fill-rule:nonzero;stroke:#263238;stroke-width:4.17px;stroke-linecap:butt;stroke-linejoin:miter;"/><path d="M2830.21,1309.02l-25.883,-20.138" style="fill:none;fill-rule:nonzero;stroke:#263238;stroke-width:2.08px;stroke-linecap:butt;stroke-linejoin:miter;"/></g><g><path d="M2843.53,1241.54l-19.154,-24.984" style="fill:none;fill-rule:nonzero;stroke:#263238;stroke-width:8.33px;stroke-linecap:butt;stroke-linejoin:miter;"/><path d="M2830.21,1224.05c0,0 1.667,-9.992 -6.662,-19.154c-5.009,-5.512 -32.813,-20.779 -36.642,-10.825c-4.162,10.825 23.317,35.808 43.304,29.979Z" style="fill:#41b7f9;fill-rule:nonzero;stroke:#263238;stroke-width:4.17px;stroke-linecap:butt;stroke-linejoin:miter;"/><path d="M2830.21,1224.05l-25.883,-20.141" style="fill:none;fill-rule:nonzero;stroke:#263238;stroke-width:2.08px;stroke-linecap:butt;stroke-linejoin:miter;"/></g><g><path d="M2843.53,1156.2l-19.154,-24.983" style="fill:none;fill-rule:nonzero;stroke:#263238;stroke-width:8.33px;stroke-linecap:butt;stroke-linejoin:miter;"/><path d="M2830.21,1138.71c0,-0 1.667,-9.992 -6.662,-19.155c-5.009,-5.512 -32.813,-20.779 -36.642,-10.825c-4.162,10.825 23.317,35.809 43.304,29.98Z" style="fill:#41b7f9;fill-rule:nonzero;stroke:#263238;stroke-width:4.17px;stroke-linecap:butt;stroke-linejoin:miter;"/><path d="M2830.21,1138.71l-25.883,-20.142" style="fill:none;fill-rule:nonzero;stroke:#263238;stroke-width:2.08px;stroke-linecap:butt;stroke-linejoin:miter;"/></g><g><path d="M2843.11,1596.07l19.155,-24.984" style="fill:none;fill-rule:nonzero;stroke:#263238;stroke-width:8.33px;stroke-linecap:butt;stroke-linejoin:miter;"/><path d="M2856.43,1578.58c0,0 -1.662,-9.992 6.663,-19.154c5.008,-5.512 32.812,-20.779 36.642,-10.825c4.162,10.825 -23.321,35.808 -43.305,29.979Z" style="fill:#41b7f9;fill-rule:nonzero;stroke:#263238;stroke-width:4.17px;stroke-linecap:butt;stroke-linejoin:miter;"/><path d="M2856.43,1578.58l27.413,-21.225" style="fill:none;fill-rule:nonzero;stroke:#263238;stroke-width:2.08px;stroke-linecap:butt;stroke-linejoin:miter;"/></g><g><path d="M2843.11,1423.16l19.155,-24.983" style="fill:none;fill-rule:nonzero;stroke:#263238;stroke-width:8.33px;stroke-linecap:butt;stroke-linejoin:miter;"/><path d="M2856.43,1405.67c0,-0 -1.662,-9.992 6.663,-19.154c5.008,-5.513 32.812,-20.78 36.642,-10.825c4.162,10.825 -23.321,35.808 -43.305,29.979Z" style="fill:#41b7f9;fill-rule:nonzero;stroke:#263238;stroke-width:4.17px;stroke-linecap:butt;stroke-linejoin:miter;"/><path d="M2856.43,1405.67l27.413,-21.225" style="fill:none;fill-rule:nonzero;stroke:#263238;stroke-width:2.08px;stroke-linecap:butt;stroke-linejoin:miter;"/></g><g><path d="M2843.11,1337.82l19.155,-24.984" style="fill:none;fill-rule:nonzero;stroke:#263238;stroke-width:8.33px;stroke-linecap:butt;stroke-linejoin:miter;"/><path d="M2856.43,1320.33c0,0 -1.662,-9.991 6.663,-19.154c5.008,-5.512 32.812,-20.779 36.642,-10.825c4.162,10.825 -23.321,35.808 -43.305,29.979Z" style="fill:#41b7f9;fill-rule:nonzero;stroke:#263238;stroke-width:4.17px;stroke-linecap:butt;stroke-linejoin:miter;"/><path d="M2856.43,1320.33l27.413,-21.225" style="fill:none;fill-rule:nonzero;stroke:#263238;stroke-width:2.08px;stroke-linecap:butt;stroke-linejoin:miter;"/></g><g><path d="M2843.11,1225.02l19.155,-24.979" style="fill:none;fill-rule:nonzero;stroke:#263238;stroke-width:8.33px;stroke-linecap:butt;stroke-linejoin:miter;"/><path d="M2856.43,1207.53c0,0 -1.662,-9.991 6.663,-19.154c5.008,-5.512 32.812,-20.779 36.642,-10.825c4.162,10.829 -23.321,35.808 -43.305,29.979Z" style="fill:#41b7f9;fill-rule:nonzero;stroke:#263238;stroke-width:4.17px;stroke-linecap:butt;stroke-linejoin:miter;"/><path d="M2856.43,1207.53l27.413,-21.225" style="fill:none;fill-rule:nonzero;stroke:#263238;stroke-width:2.08px;stroke-linecap:butt;stroke-linejoin:miter;"/></g><g><path d="M2843.11,1136.34l19.155,-24.984" style="fill:none;fill-rule:nonzero;stroke:#263238;stroke-width:8.33px;stroke-linecap:butt;stroke-linejoin:miter;"/><path d="M2856.43,1118.85c0,0 -1.662,-9.992 6.663,-19.154c5.008,-5.513 32.812,-20.779 36.642,-10.825c4.162,10.825 -23.321,35.808 -43.305,29.979Z" style="fill:#41b7f9;fill-rule:nonzero;stroke:#263238;stroke-width:4.17px;stroke-linecap:butt;stroke-linejoin:miter;"/><path d="M2856.43,1118.85l27.413,-21.225" style="fill:none;fill-rule:nonzero;stroke:#263238;stroke-width:2.08px;stroke-linecap:butt;stroke-linejoin:miter;"/><path d="M2841.96,1079.52c-0.001,-0 -1.667,-9.992 6.662,-19.155c5.008,-5.512 32.813,-20.779 36.642,-10.825c4.162,10.83 -23.321,35.809 -43.304,29.98Z" style="fill:#41b7f9;fill-rule:nonzero;stroke:#263238;stroke-width:4.17px;stroke-linecap:butt;stroke-linejoin:miter;"/><path d="M2841.96,1079.52l27.412,-21.221" style="fill:none;fill-rule:nonzero;stroke:#263238;stroke-width:2.08px;stroke-linecap:butt;stroke-linejoin:miter;"/><path d="M2843.3,1080.7c0,-0 -10.112,0.608 -18.35,-8.633c-4.954,-5.563 -17.225,-34.813 -6.921,-37.575c11.2,-3.005 33.163,26.945 25.271,46.208Z" style="fill:#41b7f9;fill-rule:nonzero;stroke:#263238;stroke-width:4.17px;stroke-linecap:butt;stroke-linejoin:miter;"/><path d="M2843.3,1080.7l-18.233,-29.488" style="fill:none;fill-rule:nonzero;stroke:#263238;stroke-width:2.08px;stroke-linecap:butt;stroke-linejoin:miter;"/></g></g><path d="M2866.87,1799.9l-61.267,-0l-7.658,-154.733l76.583,-0l-7.658,154.733Z" style="fill:#263238;fill-rule:nonzero;stroke:#263238;stroke-width:4.17px;stroke-linecap:butt;stroke-linejoin:miter;"/></g></g><g id="File_Cabinet"><g><g><rect x="208.333" y="820.729" width="337.5" height="979.167" style="fill:#fff;stroke:#263238;stroke-width:4.17px;"/><g><rect x="237.5" y="904.063" width="275" height="166.667" style="fill:#fff;stroke:#263238;stroke-width:4.17px;"/><rect x="341.667" y="958.229" width="66.667" height="58.333" style="fill:#263238;stroke:#263238;stroke-width:4.17px;"/><rect x="353.571" y="968.646" width="42.854" height="37.5" style="fill:#fff;stroke:#263238;stroke-width:4.17px;"/></g><g><rect x="237.5" y="1099.62" width="275" height="166.667" style="fill:#fff;stroke:#263238;stroke-width:4.17px;"/><rect x="341.667" y="1153.79" width="66.667" height="58.333" style="fill:#263238;stroke:#263238;stroke-width:4.17px;"/><rect x="353.571" y="1164.21" width="42.854" height="37.5" style="fill:#fff;stroke:#263238;stroke-width:4.17px;"/></g><g><rect x="237.5" y="1295.19" width="275" height="166.667" style="fill:#fff;stroke:#263238;stroke-width:4.17px;"/><rect x="341.667" y="1349.36" width="66.667" height="58.333" style="fill:#263238;stroke:#263238;stroke-width:4.17px;"/><rect x="353.571" y="1359.78" width="42.854" height="37.5" style="fill:#fff;stroke:#263238;stroke-width:4.17px;"/></g><g><rect x="237.5" y="1490.75" width="275" height="166.667" style="fill:#fff;stroke:#263238;stroke-width:4.17px;"/><rect x="341.667" y="1544.92" width="66.667" height="58.333" style="fill:#263238;stroke:#263238;stroke-width:4.17px;"/><rect x="353.571" y="1555.34" width="42.854" height="37.5" style="fill:#fff;stroke:#263238;stroke-width:4.17px;"/></g></g><g><rect x="231.392" y="691.442" width="152.633" height="127.783" style="fill:none;stroke:#263238;stroke-width:4.17px;"/><path d="M384.021,767.758l-72.767,0l-31.942,-74.541l-0.274,-1.775l-47.646,-0l-0,127.783l152.629,-0l-0,-51.467Z" style="fill:#263238;fill-rule:nonzero;stroke:#263238;stroke-width:4.17px;"/></g><g><rect x="456.788" y="755.333" width="53.242" height="65.667" style="fill:#263238;stroke:#263238;stroke-width:4.17px;"/><path d="M482.104,717.517c0,-0 22.604,-11.875 27.929,-33.175c5.325,-21.296 -21.296,-62.117 -21.296,-62.117c0,0 -26.62,30.171 -26.62,51.471c-0,21.3 19.987,43.821 19.987,43.821Z" style="fill:#41b7f9;fill-rule:nonzero;stroke:#263238;stroke-width:4.17px;"/><path d="M468.375,743.596c0,-0 4.387,-29.083 -11.588,-39.733c-15.974,-10.651 -53.241,-5.326 -53.241,-5.326c-0,0 7.1,42.596 26.621,46.146c19.521,3.55 38.208,-1.087 38.208,-1.087Z" style="fill:#41b7f9;fill-rule:nonzero;stroke:#263238;stroke-width:4.17px;"/><path d="M508.258,734.038c0,-0 -1.775,-21.296 14.2,-37.271c15.975,-15.971 49.696,-7.1 49.696,-7.1c0,-0 -7.1,30.171 -26.621,40.821c-19.529,10.645 -37.275,3.55 -37.275,3.55Z" style="fill:#41b7f9;fill-rule:nonzero;stroke:#263238;stroke-width:4.17px;"/><path d="M478.088,757.108l-24.851,-30.17" style="fill:none;fill-rule:nonzero;stroke:#263238;stroke-width:4.17px;"/><path d="M483.413,663.042l-0,101.166l44.366,-51.471" style="fill:none;fill-rule:nonzero;stroke:#263238;stroke-width:4.17px;"/></g></g></g><g id="Character_3"><g><g><path d="M2505.25,1005.29c0,-0 24.708,2.245 38.188,17.97c13.479,15.725 17.97,57.28 15.72,75.259c-1.404,11.262 2.826,20.671 11.992,27.383c12.517,9.163 24.525,21.463 27.075,37.921c2.375,15.312 -2.15,42.821 -16.604,51.492c-16.846,10.108 -39.308,30.325 -28.079,38.187c11.229,7.863 21.337,6.738 21.337,6.738c0,-0 1.125,23.583 -32.57,23.583c-33.696,-0 -41.555,-24.708 -33.692,-53.908c7.862,-29.2 26.954,-62.896 8.983,-78.617c-17.971,-15.725 -25.833,-44.925 -14.6,-64.017c11.229,-19.091 15.725,-59.525 5.617,-69.633c-10.104,-10.113 -3.367,-12.359 -3.367,-12.359Z" style="fill:#263238;fill-rule:nonzero;stroke:#263238;stroke-width:4.17px;"/><path d="M2162.4,1455.24l31.446,272.545l33.775,-2.329l8.154,-208.483l20.967,-2.329l131.612,8.154c0,-0 16.305,-3.496 20.967,-3.496c4.658,-0 10.483,-12.813 -17.471,-24.458c-27.954,-11.646 -221.296,-48.917 -225.954,-48.917c-4.658,-0.008 -3.496,9.313 -3.496,9.313Z" style="fill:#263238;fill-rule:nonzero;stroke:#263238;stroke-width:4.17px;"/><path d="M2345.27,1416.8c-0,0 -120.954,-40.046 -238.767,-13.975c-9.65,2.133 -30.283,248.083 -30.283,248.083l31.446,9.317l48.916,-194.508c0,-0 204.992,59.4 246.921,53.579c41.933,-5.825 -58.233,-102.496 -58.233,-102.496Z" style="fill:#263238;fill-rule:nonzero;stroke:#263238;stroke-width:4.17px;"/><g><path d="M2379.04,1005.65c-0,0 -9.317,24.459 -9.317,36.104c0,11.646 1.163,19.8 1.163,19.8c-0,0 -16.309,17.471 -10.484,23.296l5.825,5.825c0,0 8.154,45.425 15.142,47.754c6.987,2.33 36.108,-3.495 36.108,-3.495l0.438,64.22l57.8,-49.079l-4.659,-37.271c0,0 13.975,-19.8 30.284,-43.095c16.304,-23.296 6.987,-60.567 -2.329,-78.038c-9.317,-17.471 -80.367,-53.579 -128.121,5.825l8.15,8.154Z" style="fill:#fff;fill-rule:nonzero;stroke:#263238;stroke-width:4.17px;"/><path d="M2417.48,1134.94l16.233,-4.23l-15.045,30.088l-1.188,-25.859Z" style="fill:#263238;fill-rule:nonzero;stroke:#263238;stroke-width:4.17px;"/><path d="M2499.01,991.679c-9.316,-17.471 -80.366,-53.579 -128.121,5.825l8.155,8.154l58.237,64.059c0,-0 5.975,-19.005 18.638,-8.155c8.154,6.988 4.658,22.13 1.162,23.296c-3.496,1.167 -11.646,12.813 -11.646,12.813l25.625,15.141c0,0 13.975,-19.8 30.284,-43.095c16.304,-23.296 6.983,-60.567 -2.334,-78.038Z" style="fill:#263238;fill-rule:nonzero;stroke:#263238;stroke-width:4.17px;"/><ellipse cx="2380.86" cy="1062.08" rx="3.138" ry="7.175" style="fill:#263238;"/><path d="M2376.83,1044.15c0,0 6.275,-2.692 13.45,3.587" style="fill:none;fill-rule:nonzero;stroke:#263238;stroke-width:4.17px;"/><path d="M2375.03,1097.95c0,0 9.863,1.792 17.038,-3.588" style="fill:none;fill-rule:nonzero;stroke:#263238;stroke-width:4.17px;"/></g><path d="M2381.72,1302.09l-125.354,10.125l-40.296,-3.734c-0,0 -55.479,18.838 -44.663,22.484c10.817,3.645 23.413,-0.263 23.413,-0.263c-0,0 16.466,6.879 32.766,6.517c16.305,-0.367 27.009,-3.621 27.009,-3.621l139.804,21.033l-12.679,-52.541Z" style="fill:#263238;fill-rule:nonzero;stroke:#263238;stroke-width:4.17px;"/><path d="M2473.39,1143.09c-0,-0 -72.213,69.883 -83.859,87.354c-11.646,17.471 -16.304,32.612 -16.304,47.754c0,15.142 10.483,48.917 10.483,48.917l-13.975,50.083l-40.766,37.271l64.058,102.496c0,-0 29.117,5.825 48.917,-5.825c19.8,-11.646 32.612,-61.73 32.612,-86.188c0,-24.458 -4.658,-76.871 -4.658,-76.871c-0,0 26.787,-83.858 34.941,-115.308c8.155,-31.446 9.317,-59.4 1.167,-74.542c-8.158,-15.141 -20.971,-23.295 -32.616,-15.141Z" style="fill:#41b7f9;fill-rule:nonzero;stroke:#263238;stroke-width:4.17px;"/><path d="M2193.85,1727.78l-39.6,44.259c0,-0 -30.283,9.316 -34.942,13.975c-4.658,4.658 4.659,6.987 16.305,11.645c11.645,4.659 54.741,-2.329 68.716,-3.495c13.975,-1.167 26.788,-0 31.446,-11.646c4.659,-11.646 0,-24.459 -1.162,-29.117c-1.167,-4.658 -6.988,-27.954 -6.988,-27.954l-33.775,2.333Z" style="fill:#fff;fill-rule:nonzero;stroke:#263238;stroke-width:4.17px;"/><path d="M2152.28,1772.66c-6.725,2.133 -29.017,9.408 -32.962,13.354c-4.659,4.658 4.658,6.987 16.308,11.646c11.646,4.658 54.742,-2.33 68.717,-3.496c13.975,-1.163 26.787,-0 31.445,-11.646c4.659,-11.646 0,-24.458 -1.162,-29.117c-0.134,-0.525 -0.329,-1.316 -0.567,-2.258c-20.333,12.75 -54.925,26.721 -62.329,26.721c-5.025,-0.004 -13.079,-2.709 -19.45,-5.204Z" style="fill:#41b7f9;fill-rule:nonzero;stroke:#263238;stroke-width:4.17px;"/><g><path d="M2076.22,1650.91c-0,0 -45.425,50.084 -51.246,57.071c-5.825,6.988 -23.296,9.317 -22.129,17.471c1.162,8.154 19.8,5.825 27.954,4.658c8.154,-1.166 59.4,-13.975 66.387,-16.308c6.988,-2.329 16.309,-5.825 17.471,-16.304c1.167,-10.483 -6.987,-37.271 -6.987,-37.271l-31.45,-9.317Z" style="fill:#fff;fill-rule:nonzero;stroke:#263238;stroke-width:4.17px;"/><path d="M2114.65,1697.5c0.729,-6.542 -2.175,-19.433 -4.458,-28.2c-11.434,5.592 -22.479,20.704 -28.154,23.542c-6.988,3.496 -60.567,20.966 -60.567,20.966l-2.442,-1.375c-7.333,4.03 -17.071,6.867 -16.191,13.021c1.162,8.154 19.8,5.825 27.954,4.659c8.154,-1.167 59.4,-13.98 66.387,-16.309c6.992,-2.329 16.309,-5.825 17.471,-16.304Z" style="fill:#41b7f9;fill-rule:nonzero;stroke:#263238;stroke-width:4.17px;"/></g><g><path d="M2452.47,1204.08l-32.571,108.942l-163.533,-0.813l-1.767,21.384c-0,-0 164.175,33.337 175.408,33.337c11.234,0 23.584,-3.371 28.079,-11.229c4.492,-7.862 51.663,-124.667 53.909,-150.5c2.246,-25.833 -3.371,-44.925 -13.479,-50.542c-10.109,-5.616 -30.325,4.492 -37.063,15.725" style="fill:#41b7f9;fill-rule:nonzero;stroke:#263238;stroke-width:3.72px;"/><path d="M2256.37,1312.21c-0,-0 -46.288,-10.2 -53.025,-10.046c-6.738,0.15 -41.067,22.262 -40.992,25.633c0.075,3.371 9.058,3.167 9.058,3.167l15.696,-1.475l16.767,-3.746c-0,-0 14.696,4.162 21.433,4.012c6.738,-0.15 16.792,-2.625 16.792,-2.625l12.5,6.463l1.771,-21.383Z" style="fill:#fff;fill-rule:nonzero;stroke:#263238;stroke-width:4.17px;"/></g></g><g><path d="M2548.96,1171.67l-18.75,-1.042c0,0 -47.916,138.542 -54.166,190.625c-6.25,52.083 -4.167,95.833 -1.042,110.417c3.125,14.583 19.792,42.708 19.792,42.708l20.833,5.208c0,0 -21.875,-56.25 -22.917,-71.875c-1.041,-15.625 1.646,-77.621 3.125,-85.416c11.459,-60.417 53.125,-190.625 53.125,-190.625Z" style="fill:#fff;fill-rule:nonzero;stroke:#263238;stroke-width:4.17px;"/><g><path d="M2381.25,1702.92c0,-0 -103.125,52.083 -105.208,63.541c-2.084,11.459 -0,26.042 -0,26.042l3.646,-3.646l9.895,-23.437l92.709,-43.75l-1.042,-18.75Z" style="fill:#fff;fill-rule:nonzero;stroke:#263238;stroke-width:4.17px;"/><circle cx="2283.33" cy="1788.33" r="11.458" style="fill:#263238;stroke:#263238;stroke-width:4.17px;"/></g><g><path d="M2411.46,1702.92c0,-0 103.125,52.083 105.209,63.541c2.083,11.459 -0,26.042 -0,26.042l-3.646,-3.646l-9.896,-23.437l-92.708,-43.75l1.041,-18.75Z" style="fill:#fff;fill-rule:nonzero;stroke:#263238;stroke-width:4.17px;"/><circle cx="2509.38" cy="1788.33" r="11.458" style="fill:#263238;stroke:#263238;stroke-width:4.17px;"/></g><rect x="2386.46" y="1533.12" width="16.667" height="181.25" style="fill:#fff;stroke:#263238;stroke-width:4.17px;"/><rect x="2370.83" y="1550.83" width="48.958" height="33.333" style="fill:#263238;stroke:#263238;stroke-width:4.17px;"/><g><path d="M2511.63,1517.28c-36.066,-3.779 -152.287,-13.862 -256.458,0.1c-3.954,0.529 -5.483,5.433 -2.579,8.171c11.071,10.45 41.8,29.458 121.367,34.662c82.216,5.38 124.191,-19.85 140.558,-33.458c3.658,-3.046 1.85,-8.979 -2.888,-9.475Z" style="fill:#fff;fill-rule:nonzero;stroke:#263238;stroke-width:4.17px;"/><path d="M2252.5,1525.45c0.066,0.062 0.133,0.125 0.2,0.192c0.858,0.804 2.017,1.237 3.196,1.237l258.458,0c0.058,-0.05 0.117,-0.096 0.175,-0.146c3.642,-3.033 1.796,-8.962 -2.921,-9.458c-36.096,-3.779 -152.291,-13.859 -256.441,0.104c-3.884,0.521 -5.509,5.375 -2.667,8.071Z" style="fill:#41b7f9;fill-rule:nonzero;stroke:#263238;stroke-width:4.17px;"/></g><rect x="2376.04" y="1686.25" width="38.542" height="40.625" style="fill:#263238;stroke:#263238;stroke-width:4.17px;"/><rect x="2391.15" y="1706.56" width="5.729" height="93.229" style="fill:#fff;stroke:#263238;stroke-width:4.17px;"/><rect x="2388.93" y="1775.48" width="10.092" height="24.417" style="fill:#263238;stroke:#263238;stroke-width:4.17px;"/><path d="M2434.38,1526.88l-22.917,0l-14.583,-139.583l15.625,-0l21.875,139.583Z" style="fill:#fff;fill-rule:nonzero;stroke:#263238;stroke-width:4.17px;"/><path d="M2473.96,1396.67l-157.291,-0c-0,-0 11.458,-20.834 18.75,-22.917c7.291,-2.083 126.041,0 126.041,0c0,0 12.5,4.167 12.5,22.917Z" style="fill:#41b7f9;fill-rule:nonzero;stroke:#263238;stroke-width:4.17px;"/><path d="M2316.67,1396.67l157.291,-0c0,-1.896 -0.154,-3.6 -0.383,-5.209l-153.833,0c-1.867,3.017 -3.075,5.209 -3.075,5.209Z" style="fill:#fff;fill-rule:nonzero;stroke:#263238;stroke-width:4.17px;"/></g></g></g><g id="Character_2"><g><g><g><path d="M1733.79,1164.36l-212.655,0c-14.341,0 -25.854,11.842 -25.446,26.18l7.592,267.916l-8.333,59.179l265.404,0l-12.5,-59.179l11.371,-267.558c0.616,-14.471 -10.95,-26.538 -25.434,-26.538Z" style="fill:#fff;fill-rule:nonzero;stroke:#263238;stroke-width:4.17px;"/><path d="M1724.09,1180.5l-193.221,0c-13.034,0 -23.492,11.242 -23.121,24.85l6.9,254.317l-7.571,56.175l241.154,-0l-11.358,-56.175l10.333,-253.975c0.554,-13.738 -9.954,-25.192 -23.117,-25.192Z" style="fill:#41b7f9;fill-rule:nonzero;stroke:#263238;stroke-width:4.17px;"/></g><path d="M1493.75,1390.14l-13.542,122.916l11.459,0l13.541,-122.916l-11.458,-0Z" style="fill:#fff;fill-rule:nonzero;stroke:#263238;stroke-width:4.17px;"/><path d="M1760.42,1390.14l13.541,122.916l-11.458,0l-13.542,-122.916l11.459,-0Z" style="fill:#fff;fill-rule:nonzero;stroke:#263238;stroke-width:4.17px;"/><g><path d="M1513.2,1392.1l-26.396,0c-2.617,0 -4.733,-2.121 -4.733,-4.733l-0,-15.638c-0,-2.616 2.12,-4.733 4.733,-4.733l26.396,-0c2.616,-0 4.737,2.121 4.737,4.733l0,15.638c0,2.612 -2.12,4.733 -4.737,4.733Z" style="fill:#fff;fill-rule:nonzero;stroke:#263238;stroke-width:4.17px;"/><path d="M1513.2,1367l-26.396,0c-2.617,0 -4.733,2.121 -4.733,4.733l-0,14.25l35.866,0l0,-14.25c0,-2.612 -2.12,-4.733 -4.737,-4.733Z" style="fill:#41b7f9;fill-rule:nonzero;stroke:#263238;stroke-width:4.17px;"/></g><g><path d="M1768.09,1392.1l-26.396,0c-2.617,0 -4.738,-2.121 -4.738,-4.733l0,-15.638c0,-2.616 2.121,-4.733 4.738,-4.733l26.396,-0c2.616,-0 4.733,2.121 4.733,4.733l0,15.638c0,2.612 -2.121,4.733 -4.733,4.733Z" style="fill:#fff;fill-rule:nonzero;stroke:#263238;stroke-width:4.17px;"/><path d="M1768.09,1367l-26.396,0c-2.617,0 -4.738,2.121 -4.738,4.733l0,14.25l35.867,0l0,-14.25c0,-2.612 -2.121,-4.733 -4.733,-4.733Z" style="fill:#41b7f9;fill-rule:nonzero;stroke:#263238;stroke-width:4.17px;"/></g><g><g><path d="M1623.12,1697.43c-0,0 -103.125,52.084 -105.209,63.542c-2.083,11.458 0,26.042 0,26.042l3.646,-3.646l9.896,-23.438l92.708,-43.75l-1.041,-18.75Z" style="fill:#fff;fill-rule:nonzero;stroke:#263238;stroke-width:4.17px;"/><circle cx="1525.2" cy="1782.85" r="11.458" style="fill:#263238;stroke:#263238;stroke-width:4.17px;"/></g><g><path d="M1653.33,1697.43c0,0 103.125,52.084 105.208,63.542c2.084,11.458 0,26.042 0,26.042l-3.646,-3.646l-9.895,-23.438l-92.709,-43.75l1.042,-18.75Z" style="fill:#fff;fill-rule:nonzero;stroke:#263238;stroke-width:4.17px;"/><circle cx="1751.24" cy="1782.85" r="11.458" style="fill:#263238;stroke:#263238;stroke-width:4.17px;"/></g><rect x="1628.33" y="1527.64" width="16.667" height="181.25" style="fill:#fff;stroke:#263238;stroke-width:4.17px;"/><rect x="1612.7" y="1545.35" width="48.958" height="33.333" style="fill:#263238;stroke:#263238;stroke-width:4.17px;"/><g><path d="M1773.12,1511.85c-40.504,-3.716 -174.338,-13.958 -294.517,-0.075c-4.675,0.542 -6.246,6.5 -2.516,9.371c13.808,10.633 49.762,28.542 138.104,33.571c94.471,5.379 142.708,-19.842 161.521,-33.45c3.908,-2.825 2.212,-8.975 -2.592,-9.417Z" style="fill:#fff;fill-rule:nonzero;stroke:#263238;stroke-width:4.17px;"/><path d="M1475.99,1521.07c0.137,0.108 0.279,0.216 0.425,0.325l299.12,-0c0.067,-0.05 0.138,-0.096 0.205,-0.146c3.883,-2.813 2.154,-8.95 -2.621,-9.388c-40.513,-3.716 -174.334,-13.954 -294.496,-0.075c-4.613,0.529 -6.304,6.442 -2.633,9.284Z" style="fill:#41b7f9;fill-rule:nonzero;stroke:#263238;stroke-width:4.17px;"/></g><rect x="1617.91" y="1680.77" width="38.542" height="40.625" style="fill:#263238;stroke:#263238;stroke-width:4.17px;"/><rect x="1633.01" y="1701.08" width="5.729" height="93.229" style="fill:#fff;stroke:#263238;stroke-width:4.17px;"/><rect x="1630.79" y="1769.99" width="10.092" height="24.417" style="fill:#263238;stroke:#263238;stroke-width:4.17px;"/></g></g><g><g><path d="M1550.18,1334.65l-23.5,93.717c0,-0 -38.841,39.8 -42.308,62.345c-3.467,22.542 90.154,231.396 90.154,231.396l39.884,-5.2l-22.542,-208.658l71.096,-1.733l-0.73,210.391l39.884,5.2l66.083,-205.891c0,-0 7.404,-24.684 1.646,-38.667c-11.067,-26.879 -43.779,-49.071 -43.779,-49.071l-32.271,-93.825l-143.617,0l0,-0.004Z" style="fill:#263238;fill-rule:nonzero;stroke:#263238;stroke-width:4.17px;"/><path d="M2822.5,295.534l-14.108,-14.109" style="fill:none;fill-rule:nonzero;stroke:#fff;stroke-width:14.85px;stroke-miterlimit:4;"/><g><path d="M1574.53,1722.11c0,0 -0.258,20.071 -4.504,37.05c-4.246,16.98 -15.917,29.713 -10.613,36.084c5.305,6.366 35.021,5.304 45.634,2.121c10.612,-3.184 16.979,-12.734 16.979,-28.655c-0,-15.92 -7.613,-51.804 -7.613,-51.804l-39.883,5.204Z" style="fill:#fff;fill-rule:nonzero;stroke:#263238;stroke-width:4.17px;"/><path d="M1559.41,1795.24c5.304,6.366 35.02,5.304 45.633,2.121c10.612,-3.184 16.979,-12.734 16.979,-28.655c0,-4.379 -0.588,-10.287 -1.421,-16.529c-2.571,7.613 -8.129,14.734 -19.804,16.529c-20.017,3.08 -29.95,1.138 -33.908,-0.166c-5.005,12.295 -11.755,21.566 -7.479,26.7Z" style="fill:#41b7f9;fill-rule:nonzero;stroke:#263238;stroke-width:4.17px;"/></g><g><path d="M1702.12,1722.11c-0,0 0.258,20.071 4.504,37.05c4.246,16.98 15.917,29.713 10.613,36.084c-5.305,6.366 -35.021,5.304 -45.634,2.121c-10.612,-3.184 -16.979,-12.734 -16.979,-28.655c0,-15.92 7.613,-51.804 7.613,-51.804l39.883,5.204Z" style="fill:#fff;fill-rule:nonzero;stroke:#263238;stroke-width:4.17px;"/><path d="M1717.24,1795.24c-5.305,6.366 -35.021,5.304 -45.634,2.121c-10.612,-3.184 -16.979,-12.734 -16.979,-28.655c0,-4.379 0.588,-10.287 1.421,-16.529c2.571,7.613 8.129,14.734 19.804,16.529c20.017,3.08 29.95,1.138 33.908,-0.166c5.005,12.295 11.755,21.566 7.48,26.7Z" style="fill:#41b7f9;fill-rule:nonzero;stroke:#263238;stroke-width:4.17px;"/></g></g><g><path d="M1578.21,1115.62c0,-0 -65.679,20.142 -71.812,28.025c-6.129,7.883 -89.325,125.217 -101.588,138.35c-12.258,13.137 -14.887,28.025 -14.012,34.154c0.875,6.129 9.633,21.017 9.633,21.017l35.904,-0l25.396,-38.534l62.729,-66.125l25.721,102.142l143.621,0l21.412,-105.858c0,-0 45.142,76.845 46.017,79.475c0.875,2.625 14.013,25.396 38.533,23.646c24.521,-1.75 21.017,-34.155 9.634,-61.3c-11.383,-27.146 -56.046,-119.084 -69.184,-131.346c-13.137,-12.259 -84.07,-28.025 -84.07,-28.025l-77.934,4.379Z" style="fill:#41b7f9;fill-rule:nonzero;stroke:#263238;stroke-width:4.93px;"/><g><path d="M1754.73,1304.34c0,-0 -11.429,-1.475 7.742,-13.271c19.171,-11.796 45.713,-11.429 54.192,-9.584c8.479,1.842 9.954,7.375 14.746,19.538c4.791,12.167 2.579,23.225 -2.58,28.387c-5.162,5.163 -4.425,7.375 -21.75,2.95c-17.325,-4.425 -35.391,-14.379 -43.133,-19.17c-7.742,-4.796 -9.217,-8.85 -9.217,-8.85Z" style="fill:#fff;fill-rule:nonzero;stroke:#263238;stroke-width:4.17px;"/><g><path d="M1756.53,1306.7c0,0 31.38,-10.471 43.175,-13.421c11.796,-2.95 24.334,5.9 27.28,19.909c2.95,14.008 -1.475,27.279 -16.592,30.6c-15.117,3.316 -30.229,-1.105 -38.708,-6.267c-8.48,-5.163 -22.855,-12.904 -22.855,-12.904l7.7,-17.917Z" style="fill:#fff;fill-rule:nonzero;stroke:#263238;stroke-width:4.17px;"/><g><path d="M1724.13,1305.08c0,0 -9.216,3.688 -11.058,4.792c-1.842,1.108 -10.692,10.691 -16.221,12.904c-5.529,2.212 -13.641,2.212 -7.375,8.479c6.267,6.267 14.009,1.475 17.696,-1.104c3.688,-2.579 9.217,-5.529 10.692,-5.529c1.475,-0 8.479,1.104 9.954,1.475c1.475,0.371 24.333,6.266 30.229,7.741c5.9,1.475 9.217,2.58 13.271,-4.791c4.054,-7.375 -2.213,-17.696 -7.004,-21.013c-4.792,-3.325 -40.184,-2.954 -40.184,-2.954Z" style="fill:#fff;fill-rule:nonzero;stroke:#263238;stroke-width:4.17px;"/><g><path d="M1734.96,1299.51c-0,0 -12.263,-3.504 -12.263,0.875c0,4.38 -3.504,33.28 4.379,30.65c7.884,-2.629 7.884,-31.525 7.884,-31.525Z" style="fill:#fff;fill-rule:nonzero;stroke:#263238;stroke-width:4.17px;"/><path d="M1734.96,1299.51c-0,0 -7.005,30.65 -1.75,31.525c5.254,0.875 11.383,-21.016 12.258,-28.025c0.879,-7.004 -7.879,-7.004 -10.508,-3.5Z" style="fill:#fff;fill-rule:nonzero;stroke:#263238;stroke-width:4.17px;"/><path d="M1746.03,1303.2c0,-0 -7.004,30.65 -1.75,31.525c5.254,0.875 11.383,-21.017 12.262,-28.025c0.871,-7.004 -7.887,-7.004 -10.512,-3.5Z" style="fill:#fff;fill-rule:nonzero;stroke:#263238;stroke-width:4.17px;"/><path d="M1757.91,1310.42c-0,0 -7.18,23.813 -1.796,24.492c5.383,0.679 11.662,-16.329 12.562,-21.771c0.896,-5.442 -8.075,-5.442 -10.766,-2.721Z" style="fill:#fff;fill-rule:nonzero;stroke:#263238;stroke-width:4.17px;"/></g></g></g></g><g><path d="M1393.41,1299.17c-0,0 2.4,-14.992 6.595,-22.187c4.196,-7.196 16.188,-9.592 23.384,-12.592c7.196,-3 28.183,5.396 35.379,13.192c7.196,7.795 8.996,18.587 6.596,26.383c-2.4,7.796 -14.992,14.992 -16.788,14.992c-1.796,-0 -13.191,-18.588 -23.983,-19.788c-10.796,-1.2 -31.183,0 -31.183,0Z" style="fill:#fff;fill-rule:nonzero;stroke:#263238;stroke-width:4.17px;"/><path d="M1393.41,1299.17c-0,0 5.995,-20.987 31.179,-20.987c25.183,-0 29.379,24.583 29.379,29.979c-0,5.396 -7.196,26.983 -12.592,28.783c-5.396,1.8 -35.733,3.429 -40.95,0.217c-5.216,-3.217 -12.412,-26.6 -7.016,-37.992Z" style="fill:#fff;fill-rule:nonzero;stroke:#263238;stroke-width:4.17px;"/><g><path d="M1452.17,1325.56c0,0 5.396,4.796 17.988,7.196c12.591,2.4 20.387,5.396 11.991,8.396c-8.396,3 -16.787,1.8 -20.987,1.2c-4.196,-0.6 -10.196,-3 -10.196,-3l1.204,-13.792Z" style="fill:#fff;fill-rule:nonzero;stroke:#263238;stroke-width:4.17px;"/><g><path d="M1433.59,1309.97c-0,-0 13.791,6.596 18.587,15.591c4.796,8.996 4.796,17.988 4.796,17.988l-25.183,-0l1.8,-33.579Z" style="fill:#fff;fill-rule:nonzero;stroke:#263238;stroke-width:4.17px;"/><g><path d="M1428.79,1303.97c-0,-0 -7.796,-2.4 -10.192,1.8c-2.4,4.196 -33.579,17.987 -34.179,23.983c-0.6,5.996 -0.6,14.392 5.396,15.592c5.996,1.2 46.771,0.6 48.566,-0.6c1.8,-1.2 -4.795,-32.379 -4.795,-34.779c-0,-2.4 -1.196,-5.996 -4.796,-5.996Z" style="fill:#fff;fill-rule:nonzero;stroke:#263238;stroke-width:4.17px;"/><path d="M1418.6,1308.77l5.396,34.779" style="fill:none;fill-rule:nonzero;stroke:#263238;stroke-width:4.17px;"/><path d="M1403.01,1316.56l6.596,28.183" style="fill:none;fill-rule:nonzero;stroke:#263238;stroke-width:4.17px;"/><path d="M1392.22,1322.56l5.396,19.788" style="fill:none;fill-rule:nonzero;stroke:#263238;stroke-width:4.17px;"/></g></g></g></g><g><path d="M1552.16,990.296c-0,-0 -19.271,68.096 -17.988,88.654c1.283,20.558 59.104,46.254 95.079,51.396c35.975,5.137 86.088,-37.263 89.942,-51.396c3.854,-14.133 2.571,-55.25 -10.279,-83.517c-12.85,-28.266 -38.546,-77.091 -69.384,-78.375c-30.837,-1.283 -74.525,14.134 -87.37,73.238Z" style="fill:#263238;fill-rule:nonzero;stroke:#263238;stroke-width:4.17px;"/><path d="M1610.61,1098.1c0,0 -26.27,3.504 -26.27,7.004c-0,3.5 -10.509,11.384 -10.509,11.384l8.759,67.433l51.666,-29.775l44.663,31.525l1.75,-65.679l-26.271,-21.892l-43.788,0Z" style="fill:#fff;fill-rule:nonzero;stroke:#263238;stroke-width:4.17px;"/><path d="M1594.85,1080.59l-2.625,45.541l37.654,55.171l33.279,-55.171l-3.504,-43.787l-64.804,-1.754Z" style="fill:#fff;fill-rule:nonzero;stroke:#263238;stroke-width:4.17px;"/><path d="M1579.08,1030.67c0,-0 28.025,-22.771 43.788,-31.525c15.762,-8.759 23.646,-33.279 23.646,-33.279c-0,-0 2.629,24.52 11.383,34.154c8.758,9.633 14.888,23.646 14.888,23.646l3.504,7.883c-0,0 0.875,44.663 -0.875,47.292c-1.75,2.625 -23.646,28.9 -33.279,30.65c-9.634,1.75 -21.017,0.875 -26.271,-3.504c-5.254,-4.38 -28.9,-22.771 -30.65,-28.9c-1.754,-6.13 -6.134,-46.417 -6.134,-46.417Z" style="fill:#fff;fill-rule:nonzero;stroke:#263238;stroke-width:4.17px;"/><path d="M1610.59,1039.08c-0,3.192 -1.509,5.784 -3.375,5.784c-1.863,-0 -3.371,-2.588 -3.371,-5.784c-0,-3.196 1.508,-5.783 3.371,-5.783c1.866,-0 3.375,2.587 3.375,5.783Z" style="fill:#263238;fill-rule:nonzero;"/><ellipse cx="1649.14" cy="1039.08" rx="3.375" ry="5.783" style="fill:#263238;"/><path d="M1621.19,1069.92c-0,-0 11.566,5.783 19.275,-0" style="fill:none;fill-rule:nonzero;stroke:#263238;stroke-width:4.17px;"/><path d="M1617.34,1081.49c-0,-0 16.383,5.783 26.987,-0.963" style="fill:none;fill-rule:nonzero;stroke:#263238;stroke-width:4.17px;"/><path d="M1595.17,1029.45c-0,-0 4.817,-8.675 17.35,-6.746" style="fill:none;fill-rule:nonzero;stroke:#263238;stroke-width:4.17px;"/><path d="M1644.33,1023.66c0,-0 6.746,-4.821 15.421,4.82" style="fill:none;fill-rule:nonzero;stroke:#263238;stroke-width:4.17px;"/></g></g></g></g></g><g id="Character_1"><g><g><path d="M1086.46,1491.82l32.292,243.75l-43.75,4.166l-37.5,-136.458l48.958,-111.458Z" style="fill:#263238;fill-rule:nonzero;stroke:#263238;stroke-width:4.17px;"/><path d="M889.583,1403.28c0,0 183.334,23.958 207.292,38.542c23.958,14.583 4.167,39.583 4.167,43.75c-0,4.167 -66.667,255.208 -66.667,255.208l-48.958,-10.417l21.875,-228.125l-47.917,4.167c0,0 -176.042,-1.042 -202.083,-9.375c-26.042,-8.333 -29.167,-53.125 -23.959,-69.792c5.209,-16.666 4.167,-20.833 4.167,-20.833l152.083,-3.125Z" style="fill:#263238;fill-rule:nonzero;stroke:#263238;stroke-width:4.17px;"/><path d="M863.646,1291.2l142.45,17.358l44.587,-13.208c0,-0 43.184,18.596 36.863,24.387c-6.325,5.792 -28.509,-7.329 -28.509,-7.329c0,0 -24.983,25.642 -34.854,20.938c-9.871,-4.705 -20.471,-5.171 -20.471,-5.171l-126.425,8.5l-13.641,-45.475Z" style="fill:#263238;fill-rule:nonzero;stroke:#263238;stroke-width:4.17px;"/><path d="M769.792,1100.15c-0,0 -37.5,36.458 -44.792,67.708c-7.292,31.25 -6.25,62.5 -5.208,66.667c1.041,4.167 14.583,162.5 17.708,171.875c3.125,9.375 46.875,14.583 72.917,14.583c26.041,0 70.833,-8.333 79.166,-17.708c8.334,-9.375 4.167,-44.792 -3.125,-61.458c-7.291,-16.667 -37.5,-168.75 -39.583,-186.458c-2.083,-17.709 -3.125,-20.834 -15.625,-34.375c-12.5,-13.542 -39.583,-27.084 -61.458,-20.834Z" style="fill:#41b7f9;fill-rule:nonzero;stroke:#263238;stroke-width:3.77px;"/><g><path d="M869.792,943.904c-0,0 18.75,19.792 18.75,30.209c-0,10.416 -4.167,22.916 -3.125,26.041c1.041,3.125 15.625,18.75 15.625,23.959c-0,5.208 -9.375,12.5 -9.375,12.5c-0,-0 -5.209,30.208 -9.375,37.5c-4.167,7.291 -37.5,9.375 -37.5,9.375l-18.75,35.416l-50,-27.083l6.25,-41.667c-0,0 -30.209,-53.125 -35.417,-80.208c-5.208,-27.083 26.042,-52.083 33.333,-52.083c7.292,-0 13.542,-3.125 13.542,-3.125c0,-0 -5.208,-7.292 1.042,-8.334c6.25,-1.041 25,4.167 25,4.167c-0,-0 -16.667,-16.667 14.583,-12.5c31.25,4.167 63.542,35.416 35.417,45.833Z" style="fill:#fff;fill-rule:nonzero;stroke:#263238;stroke-width:4.17px;"/><path d="M864.275,1081.55c0,0 -4.867,-1.621 -13.787,-2.433c-8.921,-0.813 -21.9,-7.3 -21.9,-7.3l9.733,20.279l6.471,-8.608l19.483,-1.938Z" style="fill:#263238;fill-rule:nonzero;stroke:#263238;stroke-width:4.17px;"/><path d="M869.792,943.904c28.125,-10.416 -4.167,-41.666 -35.417,-45.833c-31.25,-4.167 -14.583,12.5 -14.583,12.5c-0,-0 -18.75,-5.208 -25,-4.167c-6.25,1.042 -1.042,8.334 -1.042,8.334c0,-0 -6.25,3.125 -13.542,3.125c-7.291,-0 -38.541,25 -33.333,52.083c4.883,25.387 31.729,73.654 35.075,79.6c6.158,-3.271 11.775,-9.204 9.717,-16.058c-3.125,-10.417 7.291,-30.209 7.291,-30.209c0,0 4.167,7.292 9.375,11.459c5.209,4.166 8.334,-0 8.334,-0l-2.084,-16.667c0,-0 8.334,-13.542 19.792,-21.875c11.458,-8.333 -14.583,-9.375 -16.667,-16.667c-2.083,-7.291 52.084,-15.625 52.084,-15.625Z" style="fill:#263238;fill-rule:nonzero;stroke:#263238;stroke-width:4.17px;"/><path d="M812.5,1016.82c0,-0 -10.417,-17.708 -18.75,-13.542c-8.333,4.167 -5.208,33.334 5.208,34.375c10.417,1.042 15.625,-2.083 15.625,-2.083" style="fill:#fff;fill-rule:nonzero;stroke:#263238;stroke-width:4.17px;"/><ellipse cx="872.396" cy="999.633" rx="3.646" ry="6.771" style="fill:#263238;"/><path d="M862.5,989.738c0,-0 7.292,-9.375 16.667,-4.167" style="fill:none;fill-rule:nonzero;stroke:#263238;stroke-width:4.17px;"/><path d="M866.667,1038.7c-0,-0 6.25,6.25 15.625,6.25" style="fill:none;fill-rule:nonzero;stroke:#263238;stroke-width:4.17px;"/></g><path d="M769.792,1078.28l-10.417,20.833l77.083,35.417l5.209,-27.083l-71.875,-29.167Z" style="fill:#41b7f9;fill-rule:nonzero;stroke:#263238;stroke-width:4.17px;"/><path d="M1034.38,1740.78l16.667,34.375c-0,0 39.583,14.583 38.541,20.833c-1.041,6.25 -48.958,3.125 -48.958,3.125c0,0 -67.708,-12.5 -68.75,-21.875c-1.042,-9.375 13.542,-46.875 13.542,-46.875l48.958,10.417Z" style="fill:#fff;fill-rule:nonzero;stroke:#263238;stroke-width:4.17px;"/><path d="M1118.75,1735.57c0,-0 33.333,15.625 36.458,17.708c3.125,2.083 39.584,11.458 42.709,12.5c3.125,1.042 4.166,8.333 4.166,8.333c0,0 -59.375,12.5 -63.541,12.5c-4.167,0 -33.334,-3.125 -40.625,-3.125l-26.042,0l3.125,-43.75l43.75,-4.166Z" style="fill:#fff;fill-rule:nonzero;stroke:#263238;stroke-width:4.17px;"/><g><path d="M757.292,1195.99c-0,-0.001 31.25,168.749 41.666,173.958c10.417,5.208 209.146,-32.375 209.146,-32.375l-1.658,-23.925l-162.7,-7.242c-0,0 -13.542,-152.083 -29.167,-170.833c-15.625,-18.75 -47.916,-16.667 -54.166,-3.125" style="fill:#41b7f9;fill-rule:nonzero;stroke:#263238;stroke-width:3.96px;"/><path d="M1006.45,1313.65c0,-0 48.833,-12.163 55.567,-11.867c6.733,0.296 40.575,23.15 40.425,26.517c-0.15,3.366 -9.125,2.971 -9.125,2.971l-15.659,-1.817l-16.683,-4.108c0,-0 -13.329,11.287 -20.058,10.991c-6.734,-0.296 -16.734,-2.987 -16.734,-2.987l-16.075,4.225l-1.658,-23.925Z" style="fill:#fff;fill-rule:nonzero;stroke:#263238;stroke-width:4.17px;"/></g></g><g><path d="M657.292,1159.53l18.75,-1.042c-0,0 47.916,138.542 54.166,190.625c6.25,52.084 4.167,95.834 1.042,110.417c-3.125,14.583 -19.792,42.708 -19.792,42.708l-19.791,6.25c-0,0 20.833,-57.291 21.875,-72.916c1.041,-15.625 -1.646,-77.621 -3.125,-85.417c-11.459,-60.417 -53.125,-190.625 -53.125,-190.625Z" style="fill:#fff;fill-rule:nonzero;stroke:#263238;stroke-width:4.17px;"/><g><path d="M825,1690.78c0,0 103.125,52.083 105.208,63.542c2.084,11.458 0,26.042 0,26.042l-3.645,-3.646l-9.896,-23.438l-92.709,-43.75l1.042,-18.75Z" style="fill:#fff;fill-rule:nonzero;stroke:#263238;stroke-width:4.17px;"/><circle cx="922.917" cy="1776.2" r="11.458" style="fill:#263238;stroke:#263238;stroke-width:4.17px;"/></g><g><path d="M794.792,1690.78c-0,0 -103.125,52.083 -105.209,63.542c-2.083,11.458 0,26.042 0,26.042l3.646,-3.646l9.896,-23.438l92.708,-43.75l-1.041,-18.75Z" style="fill:#fff;fill-rule:nonzero;stroke:#263238;stroke-width:4.17px;"/><circle cx="696.875" cy="1776.2" r="11.458" style="fill:#263238;stroke:#263238;stroke-width:4.17px;"/></g><rect x="803.125" y="1520.99" width="16.667" height="181.25" style="fill:#fff;stroke:#263238;stroke-width:4.17px;"/><rect x="786.458" y="1538.7" width="48.958" height="33.333" style="fill:#263238;stroke:#263238;stroke-width:4.17px;"/><g><path d="M693.958,1505.21c35.4,-3.733 153.038,-14.083 258.105,0.163c3.475,0.471 4.92,4.754 2.433,7.229c-10.317,10.246 -40.533,30.129 -122.204,35.475c-83.063,5.433 -125.05,-20.371 -141.054,-33.871c-3.446,-2.916 -1.767,-8.525 2.72,-8.996Z" style="fill:#fff;fill-rule:nonzero;stroke:#263238;stroke-width:4.17px;"/><path d="M952.354,1514.59l-0.166,0.146l-260.288,-0c-0.237,-0.196 -0.467,-0.388 -0.692,-0.58c-3.429,-2.895 -1.683,-8.483 2.78,-8.954c35.133,-3.704 151.045,-13.904 255.4,-0.191c4.645,0.612 6.483,6.483 2.966,9.579Z" style="fill:#41b7f9;fill-rule:nonzero;stroke:#263238;stroke-width:4.17px;"/></g><rect x="791.667" y="1674.12" width="38.542" height="40.625" style="fill:#263238;stroke:#263238;stroke-width:4.17px;"/><rect x="809.375" y="1694.43" width="5.729" height="93.229" style="fill:#fff;stroke:#263238;stroke-width:4.17px;"/><rect x="807.234" y="1763.34" width="10.092" height="24.417" style="fill:#263238;stroke:#263238;stroke-width:4.17px;"/><path d="M771.875,1514.74l22.917,-0.001l14.583,-139.583l-15.625,0l-21.875,139.583Z" style="fill:#fff;fill-rule:nonzero;stroke:#263238;stroke-width:4.17px;"/><path d="M732.292,1384.53l157.291,0c0,0 -11.458,-20.833 -18.75,-22.917c-7.291,-2.083 -126.041,0 -126.041,0c-0,0 -12.5,4.167 -12.5,22.917Z" style="fill:#41b7f9;fill-rule:nonzero;stroke:#263238;stroke-width:4.17px;"/><path d="M889.583,1384.53l-157.291,0c-0,-1.896 0.154,-3.6 0.383,-5.208l153.829,-0c1.871,3.021 3.079,5.208 3.079,5.208Z" style="fill:#fff;fill-rule:nonzero;stroke:#263238;stroke-width:4.17px;"/></g></g></g><g id="Devices"><g><rect x="1522.29" y="1337.89" width="234.321" height="8.213" style="fill:#fff;stroke:#263238;stroke-width:4.17px;"/><g><path d="M1753.84,1317.65l-247.375,-0c-8.638,-0 -15.638,-7 -15.638,-15.638l0,-209.804c0,-8.637 7,-15.637 15.638,-15.637l247.375,-0c8.637,-0 15.637,7.004 15.637,15.637l0,209.804c0,8.638 -7,15.638 -15.637,15.638Z" style="fill:#fff;fill-rule:nonzero;stroke:#263238;stroke-width:4.17px;"/><rect x="1607.67" y="1208.23" width="44.962" height="137.696" style="fill:#263238;stroke:#263238;stroke-width:4.17px;"/></g></g><g><rect x="2141.45" y="1338.09" width="130.983" height="7.808" style="fill:#fff;stroke:#263238;stroke-width:4.17px;"/><g><g><path d="M2062.51,1344.17l-57.12,-0c-10.071,-0 -18.376,-7.879 -18.909,-17.938c-0.108,-2.125 0.133,-4.233 0.725,-6.271l35.808,-102.941c0.759,-2.175 3.146,-3.329 5.3,-2.567c2.175,0.758 3.325,3.129 2.567,5.3l-35.737,102.733c-0.267,0.938 -0.4,2.121 -0.338,3.309c0.296,5.629 4.95,10.037 10.583,10.037l57.121,0c2.304,0 4.167,1.863 4.167,4.167c0,2.304 -1.863,4.171 -4.167,4.171Z" style="fill:#263238;fill-rule:nonzero;stroke:#263238;stroke-width:4.17px;"/></g><g><path d="M2047.76,1076.12l63.095,241.579l-6.904,5.179c0,0 -79.408,-62.146 -79.408,-113.933c-0,-51.787 13.808,-131.196 13.808,-131.196l9.409,-1.629Z" style="fill:#fff;fill-rule:nonzero;stroke:#263238;stroke-width:4.17px;"/><path d="M2047.76,1076.12l-9.409,1.629l65.6,245.129l6.904,-5.179l-63.095,-241.579Z" style="fill:#263238;fill-rule:nonzero;stroke:#263238;stroke-width:4.17px;"/></g></g></g><g><rect x="1019.78" y="1338.09" width="130.983" height="7.808" style="fill:#fff;stroke:#263238;stroke-width:4.17px;"/><g><g><path d="M1229.71,1344.17l57.121,-0c10.071,-0 18.375,-7.879 18.909,-17.938c0.108,-2.125 -0.134,-4.233 -0.726,-6.271l-35.808,-102.941c-0.758,-2.175 -3.146,-3.329 -5.3,-2.567c-2.179,0.758 -3.325,3.129 -2.566,5.3l35.737,102.733c0.267,0.938 0.4,2.121 0.338,3.309c-0.296,5.629 -4.95,10.037 -10.584,10.037l-57.121,0c-2.304,0 -4.166,1.863 -4.166,4.167c-0,2.304 1.862,4.171 4.166,4.171Z" style="fill:#263238;fill-rule:nonzero;stroke:#263238;stroke-width:4.17px;"/></g><g><path d="M1244.45,1076.12l-63.096,241.579l6.904,5.179c0,0 79.409,-62.146 79.409,-113.933c-0,-51.787 -13.809,-131.196 -13.809,-131.196l-9.408,-1.629Z" style="fill:#fff;fill-rule:nonzero;stroke:#263238;stroke-width:4.17px;"/><path d="M1244.45,1076.12l9.409,1.629l-65.601,245.129l-6.904,-5.179l63.096,-241.579Z" style="fill:#263238;fill-rule:nonzero;stroke:#263238;stroke-width:4.17px;"/></g></g></g></g><g id="Table"><g><path d="M1004.06,1368.56l17.75,45.705c6.295,12.962 8.754,35.004 7.079,49.316l-41.642,330.042c-0.479,3.8 2.483,7.158 6.313,7.158c3.058,0 5.687,-2.179 6.25,-5.183l79.52,-422.629l-29.141,-0l-5.117,24.308c-0.871,4.129 -6.654,4.421 -7.933,0.4l-9.85,-30.954l-23.23,1.837Z" style="fill:#fff;fill-rule:nonzero;stroke:#263238;stroke-width:4.17px;"/><path d="M2277.05,1368.56l-17.75,45.705c-6.296,12.962 -8.754,35.004 -7.079,49.316l41.642,330.042c0.479,3.8 -2.484,7.158 -6.313,7.158c-3.058,0 -5.687,-2.179 -6.25,-5.183l-79.521,-422.629l29.146,-0l5.117,24.308c0.871,4.129 6.654,4.421 7.933,0.4l9.85,-30.954l23.225,1.837Z" style="fill:#fff;fill-rule:nonzero;stroke:#263238;stroke-width:4.17px;"/><path d="M1634.03,1801.16c-5.646,0 -10.254,-4.52 -10.358,-10.166l-8.142,-430.404l37,-0l-8.142,430.404c-0.104,5.65 -4.712,10.166 -10.358,10.166Z" style="fill:#fff;fill-rule:nonzero;stroke:#263238;stroke-width:4.17px;"/><rect x="972.917" y="1345.73" width="1337.5" height="27.083" style="fill:#fff;stroke:#263238;stroke-width:4.17px;"/></g></g></svg>